<?xml version="1.0" encoding="utf-8"?>
<svg xmlns="http://www.w3.org/2000/svg" viewBox="21.6185 78.1634 456.7632 343.6734" width="456.763px" height="343.673px" preserveAspectRatio="none"><defs><clipPath id="clip-1" transform=""><path d="M 0 1055.6090087891 L 1560.6490478516 1055.6090087891 L 1560.6490478516 0 L 0 0" style="fill: none; clip-rule: nonzero;"/></clipPath></defs><g transform="matrix(8.148159980773926, 0, 0, 8.148159980773926, -2680.344970703125, -1094.5718994140627)" style="" id="object-10"><g style="clip-path: url(&quot;#clip-1&quot;);" transform="matrix(1, 0, 0, -1, -127.521759, 985.815613)"><g transform="translate(480.7314 832.135)"><path d="M 0 0 L -2.7349998951 1.4880000353 L 31.7159996033 6.3309998512 L 34.4510002136 4.8420000076" style="fill: rgb(231, 232, 233); fill-opacity: 1;"/></g></g><g style="clip-path: url(&quot;#clip-1&quot;);" transform="matrix(1, 0, 0, -1, -127.521759, 985.815613)"><g transform="translate(480.7471 840.4006)"><path d="M 0 0 L -0.0160000008 -8.265999794 L 34.436000824 -3.4230000973 L 34.3899993896 -27.5900001526 L -0.0610000007 -32.4319992065 L -0.0759999976 -40.688999176 L -18.8859996796 -23.0020008087" style="fill-opacity: 1;"/></g></g><g style="clip-path: url(&quot;#clip-1&quot;);" transform="matrix(1, 0, 0, -1, -127.521759, 985.815613)"><g transform="translate(480.6709 799.7112)"><path d="M 0 0 L -2.7349998951 1.4880000353 L -21.5450000763 19.1749992371 L -18.8099994659 17.6870002747" style="fill: rgb(155, 156, 160); fill-opacity: 1;"/></g></g><g style="clip-path: url(&quot;#clip-1&quot;);" transform="matrix(1, 0, 0, -1, -127.521759, 985.815613)"><g transform="translate(461.8613 817.3982)"><path d="M 0 0 L -2.7349998951 1.4880000353 L 16.1499996185 24.4909992218 L 18.8859996796 23.0020008087" style="fill: rgb(200, 200, 202); fill-opacity: 1;"/></g></g></g></svg>