<?xml version="1.0" encoding="utf-8"?>
<svg xmlns="http://www.w3.org/2000/svg" viewBox="15.2524 140.9798 469.4954 218.0406" width="469.495px" height="218.041px" preserveAspectRatio="none"><defs><clipPath id="clip-8" transform=""><path d="M 0 1055.6090087891 L 1560.6490478516 1055.6090087891 L 1560.6490478516 0 L 0 0" style="fill: none; clip-rule: nonzero;"/></clipPath></defs><g transform="matrix(10.48331069946289, 0, 0, 10.48331069946289, -3730.652587890625, -1463.7249755859377)" style="" id="object-14"><g style="clip-path: url(&quot;#clip-8&quot;);" transform="matrix(1, 0, 0, -1, -190.43663, 861.779114)"><g transform="translate(587.8057 705.1003)"><path d="M 0 0 L -0.1000000015 -5.8169999123 L -8.2069997787 -6.3839998245 L -8.107000351 -0.5669999719" style="fill: rgb(224, 224, 226); fill-opacity: 1;"/></g></g><g style="clip-path: url(&quot;#clip-8&quot;);" transform="matrix(1, 0, 0, -1, -190.43663, 861.779114)"><g transform="translate(555.9644 702.8723)"><path d="M 0 0 L -0.1010000035 -5.8169999123 L -8.2069997787 -6.3839998245 L -8.107000351 -0.5669999719" style="fill: rgb(224, 224, 226); fill-opacity: 1;"/></g></g><g style="clip-path: url(&quot;#clip-8&quot;);" transform="matrix(1, 0, 0, -1, -190.43663, 861.779114)"><g transform="translate(560.8052 708.7068)"><path d="M 0 0 L 27 -3.6059999466 L 18.8939990997 -4.1739997864 L 31.7369995117 -13.3210000992 L 8.001999855 -14.9809999466 L -4.8410000801 -5.8340001106 L -12.9479999542 -6.4019999504" style="fill-opacity: 1;"/></g></g><g style="clip-path: url(&quot;#clip-8&quot;);" transform="matrix(1, 0, 0, -1, -190.43663, 861.779114)"><g transform="translate(592.5425 695.386)"><path d="M 0 0 L -0.1000000015 -5.8169999123 L -23.8349990845 -7.478000164 L -23.7350006104 -1.6610000134" style="fill: rgb(224, 224, 226); fill-opacity: 1;"/></g></g><g style="clip-path: url(&quot;#clip-8&quot;);" transform="matrix(1, 0, 0, -1, -190.43663, 861.779114)"><g transform="translate(568.8076 693.7253)"><path d="M 0 0 L -0.1000000015 -5.8169999123 L -12.9440002441 3.3299999237 L -12.843000412 9.1470003128" style="fill: rgb(205, 205, 207); fill-opacity: 1;"/></g></g></g></svg>