<?xml version="1.0" encoding="utf-8"?>
<svg xmlns="http://www.w3.org/2000/svg" viewBox="170.489 11.3602 159.022 477.2796" width="159.022px" height="477.28px" preserveAspectRatio="none"><defs><clipPath id="clip-6" transform=""><path d="M 0 1055.6090087891 L 1560.6490478516 1055.6090087891 L 1560.6490478516 0 L 0 0" style="fill: none; clip-rule: nonzero;"/></clipPath></defs><g transform="matrix(7.77657413482666, 0, 0, 7.77657413482666, -4077.483154296875, -1104.73291015625)" style="" id="object-13"><g style="clip-path: url(&quot;#clip-6&quot;);" transform="matrix(1, 0, 0, -1, 110.523247, 873.59021)"><g transform="translate(444.3584 692.929)"><path d="M 0 0 L -5.6199998856 -0.5939999819 L -8.6289997101 1.6729999781 L -3.0090000629 2.2669999599" style="fill: rgb(211, 212, 213); fill-opacity: 1;"/></g></g><g style="clip-path: url(&quot;#clip-6&quot;);" transform="matrix(1, 0, 0, -1, 110.523247, 873.59021)"><g transform="translate(448.772 669.2903)"><path d="M 0 0 L -5.6199998856 -0.5939999819 L 1.7860000134 14.138999939 L 7.4060001373 14.7329998016" style="fill: rgb(163, 164, 167); fill-opacity: 1;"/></g></g><g style="clip-path: url(&quot;#clip-6&quot;);" transform="matrix(1, 0, 0, -1, 110.523247, 873.59021)"><g transform="translate(456.1777 684.0232)"><path d="M 0 0 L -5.6199998856 -0.5939999819 L -8.6319999695 1.675999999 L -3.0120000839 2.2699999809" style="fill: rgb(211, 212, 213); fill-opacity: 1;"/></g></g><g style="clip-path: url(&quot;#clip-6&quot;);" transform="matrix(1, 0, 0, -1, 110.523247, 873.59021)"><g transform="translate(438.7231 729.4763)"><path d="M 0 0 L 8.8070001602 -6.6360001564 L 8.8219995499 -43.7770004272 L 11.8339996338 -46.047000885 L 4.4289999008 -60.7799987793 L -2.993999958 -34.8740005493 L 0.0149999997 -37.141998291" style="fill-opacity: 1;"/></g></g><g style="clip-path: url(&quot;#clip-6&quot;);" transform="matrix(1, 0, 0, -1, 110.523247, 873.59021)"><g transform="translate(453.1655 686.2927)"><path d="M 0 0 L -5.6199998856 -0.5939999819 L -5.6360001564 36.547000885 L -0.0160000008 37.141998291" style="fill: rgb(180, 181, 184); fill-opacity: 1;"/></g></g><g style="clip-path: url(&quot;#clip-6&quot;);" transform="matrix(1, 0, 0, -1, 110.523247, 873.59021)"><g transform="translate(453.1499 723.4343)"><path d="M 0 0 L -5.6199998856 -0.5939999819 L -14.4270000458 6.0419998169 L -8.8070001602 6.6360001564" style="fill: rgb(211, 212, 213); fill-opacity: 1;"/></g></g></g></svg>