<?xml version="1.0" encoding="utf-8"?>
<svg xmlns="http://www.w3.org/2000/svg" viewBox="0 0 500 500" xmlns:bx="https://boxy-svg.com" width="500px" height="500px"><defs><bx:export><bx:file format="html" href="#object-1" path="Untitled 2.html"/><bx:file format="svg" href="#object-2"/><bx:file format="svg" href="#object-3" path="Untitled 2.svg"/><bx:file format="svg" href="#object-4" path="Untitled 3.svg"/><bx:file format="svg" href="#object-5" path="Untitled 4.svg"/><bx:file format="svg" href="#object-6" path="Untitled 5.svg"/><bx:file format="svg" href="#object-7" path="Untitled 6.svg"/><bx:file format="svg" href="#object-8" path="Untitled 7.svg"/><bx:file format="svg" href="#object-9" path="Untitled 8.svg"/><bx:file format="svg" href="#object-10" path="Untitled 9.svg"/><bx:file format="svg" path="Untitled 10.svg"/></bx:export><clipPath id="clippath15" transform=""><path d="M 221.1380004883 874.1599731445 L 229.7350006104 874.1599731445 L 219.7350006104 835.4559936523 L 264.8930053711 835.4559936523 L 254.8930053711 874.1599731445 L 263.4909973145 874.1599731445 L 242.3150024414 889.3359985352" style="fill: none; clip-rule: nonzero;"/></clipPath><clipPath id="clippath0" transform=""><path d="M 0 1055.6090087891 L 1560.6490478516 1055.6090087891 L 1560.6490478516 0 L 0 0" style="fill: none; clip-rule: nonzero;"/></clipPath><clipPath id="clippath58" transform=""><path d="M 343.1220092773 839.9459838867 L 351.7200012207 839.9459838867 L 351.7200012207 838.2940063477 L 351.7200012207 801.241027832 L 351.7200012207 799.5889892578 L 343.1220092773 799.5889892578 L 364.299987793 778.4140014648 L 385.4750061035 799.5889892578 L 376.8779907227 799.5889892578 L 376.8779907227 801.241027832 L 376.8779907227 838.2940063477 L 376.8779907227 839.9459838867 L 385.4750061035 839.9459838867 L 364.299987793 861.1220092773" style="fill: none; clip-rule: nonzero;"/></clipPath><clipPath id="clippath21" transform=""><path d="M 0 1055.6090087891 L 1560.6490478516 1055.6090087891 L 1560.6490478516 0 L 0 0" style="fill: none; clip-rule: nonzero;"/></clipPath><clipPath id="clippath35" transform=""><path d="M 0 1055.6090087891 L 1560.6490478516 1055.6090087891 L 1560.6490478516 0 L 0 0" style="fill: none; clip-rule: nonzero;"/></clipPath><clipPath id="clip-1" transform=""><path d="M 0 1055.6090087891 L 1560.6490478516 1055.6090087891 L 1560.6490478516 0 L 0 0" style="fill: none; clip-rule: nonzero;"/></clipPath><clipPath id="clip-2" transform=""><path d="M 0 1055.6090087891 L 1560.6490478516 1055.6090087891 L 1560.6490478516 0 L 0 0" style="fill: none; clip-rule: nonzero;"/></clipPath><clipPath id="clippath43" transform=""><path d="M 0 1055.6090087891 L 1560.6490478516 1055.6090087891 L 1560.6490478516 0 L 0 0" style="fill: none; clip-rule: nonzero;"/></clipPath><clipPath id="clippath44" transform=""><path d="M 925.1500244141 955.6069946289 C 920.1510009766 953.0969848633 915.1569824219 950.5789794922 910.1619873047 948.0620117188 L 910.1619873047 948.0620117188 C 910.1199951172 948.0399780273 910.0809936523 948.0130004883 910.0419921875 947.924987793 L 910.0419921875 947.924987793 L 916.1879882813 947.924987793 C 916.2039794922 947.8880004883 916.2199707031 947.8530273438 916.2349853516 947.8170166016 L 916.2349853516 947.8170166016 C 909.4819946289 941.2550048828 902.549987793 934.8829956055 895.716003418 928.408996582 L 895.716003418 928.408996582 L 954.958984375 928.408996582 C 948.1259765625 934.882019043 941.1970214844 941.2520141602 934.4439697266 947.8109741211 L 934.4439697266 947.8109741211 C 934.4559936523 947.8389892578 934.4689941406 947.8670043945 934.4819946289 947.8950195313 L 934.4819946289 947.8950195313 L 940.6199951172 947.8950195313 C 940.6259765625 947.9199829102 940.633972168 947.9450073242 940.6389770508 947.9689941406 L 940.6389770508 947.9689941406 C 940.5850219727 948.0050048828 940.533996582 948.0479736328 940.4769897461 948.0770263672 L 940.4769897461 948.0770263672 C 935.491027832 950.591003418 930.5029907227 953.1040039063 925.5120239258 955.6079711914 L 925.5120239258 955.6079711914 C 925.4639892578 955.6329956055 925.3989868164 955.6450195313 925.3330078125 955.6450195313 L 925.3330078125 955.6450195313 C 925.2670288086 955.6450195313 925.200012207 955.632019043 925.1500244141 955.6069946289" style="fill: none; clip-rule: nonzero;"/></clipPath><linearGradient id="shading40" gradientUnits="userSpaceOnUse" x1="0" y1="0" x2="1" y2="0"><stop offset="0" style="stop-color: rgb(255, 255, 255);"/><stop offset="0.3119" style="stop-color: rgb(253, 253, 253);"/><stop offset="0.4476" style="stop-color: rgb(245, 245, 245);"/><stop offset="0.5536" style="stop-color: rgb(231, 231, 231);"/><stop offset="0.6405" style="stop-color: rgb(212, 212, 212);"/><stop offset="0.7202" style="stop-color: rgb(186, 186, 186);"/><stop offset="0.7881" style="stop-color: rgb(156, 156, 156);"/><stop offset="0.8488" style="stop-color: rgb(122, 122, 122);"/><stop offset="0.9083" style="stop-color: rgb(81, 81, 81);"/><stop offset="0.9821" style="stop-color: rgb(18, 18, 18);"/><stop offset="1" style="stop-color: rgb(1, 1, 1);"/></linearGradient><clipPath id="clippath45" transform=""><path d="M 0 1055.6090087891 L 1560.6490478516 1055.6090087891 L 1560.6490478516 0 L 0 0" style="fill: none; clip-rule: nonzero;"/></clipPath></defs><g style="clip-path: url(&quot;#clippath15&quot;); transform-origin: 242.314px 862.396px; visibility: hidden;" transform="matrix(0, 5.764827, 5.764827, 0, 8.891917, -608.844299)" id="object-0"><g transform="matrix(0 -53.8807983 -53.8807983 0 242.3142395 889.3361206)"><rect x="-3.0859579784659594" y="-24.467636005682568" width="19.5915805501345" height="28.964864093336942" style=""/></g></g><g style="clip-path: url(&quot;#clippath0&quot;); visibility: hidden;" transform="matrix(4.820617, 0, 0, -4.820617, -658.632202, 4951.794434)" id="object-1"><g transform="translate(145.0483 962.7722)"><path d="M 0 0 L 65.7050018311 0 L 65.7050018311 -8.5979995728 L 86.8809967041 12.5769996643 L 65.7050018311 33.7560005188 L 65.7050018311 25.158000946 L 0 25.158000946" style="fill-opacity: 1;"/></g></g><g style="clip-path: url(&quot;#clippath58&quot;); transform-origin: 364.299px 819.768px; visibility: hidden;" transform="matrix(0, 5.870404, 5.870404, 0, -114.29866, -569.765137)" id="object-2"><g transform="matrix(32.8529396 0 0 -65.7058792 364.2988281 819.7675781)"><rect x="-11.0887741716726" y="-3.5893655905908606" width="47.50412045319683" height="16.065685641110786" style=""/></g></g><g transform="matrix(7.749324, 0, 0, 7.749324, -2082.610596, -1082.721069)" style="visibility: hidden;" id="object-3"><g style="clip-path: url(&quot;#clippath21&quot;);" transform="matrix(1, 0, 0, -1, -229.131058, 1147.330078)"><g transform="translate(540.4814 986.2761)"><path d="M 0 0 L 0 -22 C -19.0370006561 -22.077999115 -41.2869987488 -20.4340000153 -41.2869987488 -7.626999855 C -41.2869987488 1.0640000105 -41.2620010376 3.9409999847 -41.2869987488 8.1759996414 C -39.3190002441 -0.9670000076 -18.0659999847 -0.0719999969 0 0" style="fill-opacity: 1;"/></g></g><g style="clip-path: url(&quot;#clippath21&quot;);" transform="matrix(1, 0, 0, -1, -229.131058, 1147.330078)"><g transform="translate(539.9072 996.5281)"><path d="M 0 0 L 21.1770000458 -21.1760005951 L 0 -42.3540000916" style="fill-opacity: 1;"/></g></g></g><g transform="matrix(8.587208, 0, 0, 8.587208, -1959.138062, -1330.618286)" style="visibility: hidden;"><g id="object-9"><g style="clip-path: url(&quot;#clippath35&quot;);" transform="matrix(1, 0, 0, -1, -242.144058, 1053.319214)" id="object-4"><g transform="translate(508.542 848.1638)"><path d="M 0 0 L -2.7349998951 1.4880000353 L -2.7200000286 9.7539997101 L 0.0149999997 8.265999794" style="fill: rgb(158, 159, 162); fill-opacity: 1;"/></g></g><g style="clip-path: url(&quot;#clippath35&quot;);" transform="matrix(1, 0, 0, -1, -242.144058, 1053.319214)" id="object-5"><g transform="translate(508.6025 880.5964)"><path d="M 0 0 L -2.7349998951 1.4880000353 L -2.7200000286 9.7449998856 L 0.0160000008 8.2569999695" style="fill: rgb(158, 159, 162); fill-opacity: 1;"/></g></g><g style="clip-path: url(&quot;#clippath35&quot;);" transform="matrix(1, 0, 0, -1, -242.144058, 1053.319214)" id="object-6"><g transform="translate(508.6182 888.8533)"><path d="M 0 0 L 18.8090000153 -17.6949996948 L -0.0759999976 -40.688999176 L -0.0610000007 -32.4230003357 L -34.5040016174 -37.2649993896 L -34.4580001831 -13.0989999771 L -0.0160000008 -8.2569999695" style="fill-opacity: 1; fill: rgb(6, 0, 0);"/></g></g><g style="clip-path: url(&quot;#clippath35&quot;);" transform="matrix(1, 0, 0, -1, -242.144058, 1053.319214)" id="object-7"><g transform="translate(474.1143 851.5886)"><path d="M 0 0 L -2.7349998951 1.4880000353 L -2.6900000572 25.6539993286 L 0.0450000018 24.1660003662" style="fill: rgb(158, 159, 162); fill-opacity: 1;"/></g></g><g style="clip-path: url(&quot;#clippath35&quot;);" transform="matrix(1, 0, 0, -1, -242.144058, 1053.319214)" id="object-8"><g transform="translate(474.1597 875.7546)"><path d="M 0 0 L -2.7349998951 1.4880000353 L 31.7080001831 6.3299999237 L 34.4430007935 4.8420000076" style="fill: rgb(231, 232, 233); fill-opacity: 1;"/></g></g></g></g><g transform="matrix(8.14816, 0, 0, 8.14816, -2680.344971, -1094.571899)" style="visibility: hidden;" id="object-10"><g style="clip-path: url(&quot;#clip-1&quot;);" transform="matrix(1, 0, 0, -1, -127.521759, 985.815613)"><g transform="translate(480.7314 832.135)"><path d="M 0 0 L -2.7349998951 1.4880000353 L 31.7159996033 6.3309998512 L 34.4510002136 4.8420000076" style="fill: rgb(231, 232, 233); fill-opacity: 1;"/></g></g><g style="clip-path: url(&quot;#clip-1&quot;);" transform="matrix(1, 0, 0, -1, -127.521759, 985.815613)"><g transform="translate(480.7471 840.4006)"><path d="M 0 0 L -0.0160000008 -8.265999794 L 34.436000824 -3.4230000973 L 34.3899993896 -27.5900001526 L -0.0610000007 -32.4319992065 L -0.0759999976 -40.688999176 L -18.8859996796 -23.0020008087" style="fill-opacity: 1;"/></g></g><g style="clip-path: url(&quot;#clip-1&quot;);" transform="matrix(1, 0, 0, -1, -127.521759, 985.815613)"><g transform="translate(480.6709 799.7112)"><path d="M 0 0 L -2.7349998951 1.4880000353 L -21.5450000763 19.1749992371 L -18.8099994659 17.6870002747" style="fill: rgb(155, 156, 160); fill-opacity: 1;"/></g></g><g style="clip-path: url(&quot;#clip-1&quot;);" transform="matrix(1, 0, 0, -1, -127.521759, 985.815613)"><g transform="translate(461.8613 817.3982)"><path d="M 0 0 L -2.7349998951 1.4880000353 L 16.1499996185 24.4909992218 L 18.8859996796 23.0020008087" style="fill: rgb(200, 200, 202); fill-opacity: 1;"/></g></g></g><g transform="matrix(12.782134, 0, 0, 10.862588, -4184.426758, -2077.754883)" style="visibility: hidden;"><g style="clip-path: url(&quot;#clip-2&quot;);" transform="matrix(1, 0, 0, -1, -491.446014, 1123.060303)"><g transform="translate(845.4687 887.9045)"><path d="M 0 0 L -5.5040001869 0.1049999967 L -5.6550002098 8.6680002213 L -0.1509999931 8.5629997253" style="fill: rgb(179, 180, 182); fill-opacity: 1;"/></g></g><g style="clip-path: url(&quot;#clip-2&quot;);" transform="matrix(1, 0, 0, -1, -491.446014, 1123.060303)"><g transform="translate(844.874 921.5295)"><path d="M 0 0 L -5.5029997826 0.1049999967 L -5.6550002098 8.6780004501 L -0.1509999931 8.5719995499" style="fill: rgb(179, 180, 182); fill-opacity: 1;"/></g></g><g style="clip-path: url(&quot;#clip-2&quot;);" transform="matrix(1, 0, 0, -1, -491.446014, 1123.060303)"><g transform="translate(844.7227 930.1018)"><path d="M 0 0 L 8.7969999313 -19.3069992065 L 0.7459999919 -42.1969985962 L 0.5950000286 -33.6339988708 L -14.8009996414 -36.908000946 L -15.2430000305 -11.8459997177 L 0.1509999931 -8.5719995499" style="fill-opacity: 1;"/></g></g><g style="clip-path: url(&quot;#clip-2&quot;);" transform="matrix(1, 0, 0, -1, -491.446014, 1123.060303)"><g transform="translate(829.9219 893.1936)"><path d="M 0 0 L -5.5029997826 0.1049999967 L -5.9460000992 25.1669998169 L -0.4420000017 25.0620002747" style="fill: rgb(179, 180, 182); fill-opacity: 1;"/></g></g><g style="clip-path: url(&quot;#clip-2&quot;);" transform="matrix(1, 0, 0, -1, -491.446014, 1123.060303)"><g transform="translate(829.4795 918.2556)"><path d="M 0 0 L -5.5040001869 0.1049999967 L 9.8920001984 3.3789999485 L 15.3950004578 3.2739999294" style="fill: rgb(218, 218, 219); fill-opacity: 1;"/></g></g></g><g style="clip-path: url(&quot;#clippath43&quot;); transform-origin: 955.27px 928.153px;" transform="matrix(0, 7.424429, 7.424429, 0, -831.39093, -470.05899)"><g transform="translate(955.501 927.8958)"><path d="M 0 0 C 0.0260000005 0.0299999993 0.0529999994 0.0610000007 0.0799999982 0.0900000036 C -0.0659999996 0.2310000062 -0.2109999955 0.3729999959 -0.3569999933 0.5139999986 L -0.5419999957 0.5139999986 C -0.3610000014 0.3420000076 -0.1809999943 0.1720000058 0 0" style="fill: rgb(255, 255, 255); fill-opacity: 1;"/></g></g><g style="clip-path: url(&quot;#clippath43&quot;); transform-origin: 895.403px 928.154px;" transform="matrix(0, 7.424429, 7.424429, 0, -771.512756, -914.538269)"><g transform="translate(895.0908 927.9836)"><path d="M 0 0 C 0.0280000009 -0.0289999992 0.057 -0.0579999983 0.0839999989 -0.0860000029 C 0.2639999986 0.0839999989 0.4440000057 0.2549999952 0.625 0.425999999 L 0.4399999976 0.425999999 C 0.2930000126 0.2829999924 0.1459999979 0.1420000046 0 0" style="fill: rgb(255, 255, 255); fill-opacity: 1;"/></g></g><g transform="matrix(0, 7.424429, 7.424429, 0, -698.456604, -706.159424)" style="transform-origin: 925.337px 942.027px;"><path d="M 925.1500244141 955.6069946289 C 920.1510009766 953.0969848633 915.1569824219 950.5789794922 910.1619873047 948.0620117188 L 910.1619873047 948.0620117188 C 910.1199951172 948.0399780273 910.0809936523 948.0130004883 910.0419921875 947.924987793 L 910.0419921875 947.924987793 L 916.1879882813 947.924987793 C 916.2039794922 947.8880004883 916.2199707031 947.8530273438 916.2349853516 947.8170166016 L 916.2349853516 947.8170166016 C 909.4819946289 941.2550048828 902.549987793 934.8829956055 895.716003418 928.408996582 L 895.716003418 928.408996582 L 954.958984375 928.408996582 C 948.1259765625 934.882019043 941.1970214844 941.2520141602 934.4439697266 947.8109741211 L 934.4439697266 947.8109741211 C 934.4559936523 947.8389892578 934.4689941406 947.8670043945 934.4819946289 947.8950195313 L 934.4819946289 947.8950195313 L 940.6199951172 947.8950195313 C 940.6259765625 947.9199829102 940.633972168 947.9450073242 940.6389770508 947.9689941406 L 940.6389770508 947.9689941406 C 940.5850219727 948.0050048828 940.533996582 948.0479736328 940.4769897461 948.0770263672 L 940.4769897461 948.0770263672 C 935.491027832 950.591003418 930.5029907227 953.1040039063 925.5120239258 955.6079711914 L 925.5120239258 955.6079711914 C 925.4639892578 955.6329956055 925.3989868164 955.6450195313 925.3330078125 955.6450195313 L 925.3330078125 955.6450195313 C 925.2670288086 955.6450195313 925.200012207 955.632019043 925.1500244141 955.6069946289" style="fill: none;"/></g><g style="clip-path: url(&quot;#clippath44&quot;); transform-origin: 925.337px 942.027px;" transform="matrix(0, 7.424429, 7.424429, 0, -698.456604, -706.159424)"><g transform="matrix(0 -27.2353401 -27.2353401 0 925.3374023 955.6447754)"><rect x="-3.6704232160478867" y="-23.326773059096112" width="38.75883305015163" height="57.302387055559485" style="fill: url(&quot;#shading40&quot;);"/></g></g><g style="clip-path: url(&quot;#clippath44&quot;); transform-origin: 925.337px 942.027px;" transform="matrix(0, 7.424429, 7.424429, 0, -698.456604, -706.159424)"><g transform="matrix(0 -27.2353401 -27.2353401 0 925.3374023 955.6447754)"><rect x="-3.6704232160478867" y="-23.326773059096112" width="38.75883305015163" height="57.302387055559485" style=""/></g></g><g style="clip-path: url(&quot;#clippath45&quot;); transform-origin: 925.336px 942.164px;" transform="matrix(0, 7.424429, 7.424429, 0, -697.431885, -706.310547)"><g transform="translate(908.7744 947.4622)"><path d="M 0 0 C 0 -0.0370000005 -0.0070000002 -0.0659999996 0.0020000001 -0.0920000002 C 0.2619999945 -0.9049999714 0.5170000196 -1.7200000286 0.7929999828 -2.5269999504 C 0.8180000186 -2.6040000916 0.97299999 -2.6819999218 1.067999959 -2.6830000877 C 1.8550000191 -2.6960000992 2.6440000534 -2.6989998817 3.4300000668 -2.6860001087 C 3.5650000572 -2.6840000153 3.7300000191 -2.617000103 3.8280000687 -2.5250000954 C 4.6300001144 -1.7669999599 5.4200000763 -0.9950000048 6.2119998932 -0.2269999981 C 6.2699999809 -0.1710000038 6.3179998398 -0.1059999987 6.4099998474 0 M 33.1539993286 -0.0020000001 L 26.7390003204 -0.0020000001 C 26.7789993286 -0.0689999983 26.7910003662 -0.1040000021 26.813999176 -0.1280000061 C 27.6739997864 -0.9620000124 28.533000946 -1.7970000505 29.3980007172 -2.625 C 29.4610004425 -2.6860001087 29.5659999847 -2.7290000916 29.6520004272 -2.7290000916 C 30.466999054 -2.7249999046 31.2810001373 -2.7149999142 32.0960006714 -2.6940000057 C 32.1679992676 -2.6919999123 32.28099823 -2.621999979 32.3030014038 -2.5590000153 C 32.591999054 -1.7189999819 32.8670005798 -0.8730000257 33.1539993286 -0.0020000001 M 46.7270011902 -19.5659999847 C 39.7179985046 -12.9169998169 32.5999984741 -6.382999897 25.6700000763 0.3490000069 C 25.6819992065 0.3770000041 25.6940002441 0.4050000012 25.7070007324 0.4339999855 L 31.8460006714 0.4339999855 C 31.8519992828 0.4580000043 31.8589992523 0.4819999933 31.8649997711 0.5070000291 C 31.811000824 0.5429999828 31.7600002289 0.5860000253 31.7019996643 0.6150000095 C 26.7159996033 3.1289999485 21.7290000916 5.6420001984 16.7380008698 8.1459999084 C 16.6410007477 8.1949996948 16.4750003815 8.1940002441 16.375 8.1459999084 C 11.376999855 5.6350002289 6.382999897 3.117000103 1.3880000114 0.6000000238 C 1.3459999561 0.5780000091 1.307000041 0.550999999 1.2680000067 0.4629999995 L 7.4140000343 0.4629999995 C 7.4299998283 0.425999999 7.4450001717 0.3910000026 7.4609999657 0.3540000021 C 0.5289999843 -6.381000042 -6.5900001526 -12.9139995575 -13.6000003815 -19.563999176 C -13.626999855 -19.5359992981 -13.654999733 -19.5079994202 -13.6840000153 -19.4790000916 C -8.0839996338 -14.0609998703 -2.375 -8.7550001144 3.2709999084 -3.2920000553 C 3.1270000935 -3.2809998989 1.6619999409 -3.2590000629 1.0099999905 -3.2679998875 C 0.75 -3.2720000744 0.4799999893 -3.0550000668 0.40200001 -2.8120000362 C 0.1230000034 -1.9440000057 -0.1850000024 -0.8690000176 -0.4620000124 0 C -0.5299999714 0.2129999995 -0.4880000055 0.3619999886 -0.2549999952 0.4799999893 C 2.2309999466 1.7289999723 13.3170003891 7.4019999504 16.3710002899 8.9320001602 C 16.4750003815 8.9829998016 16.6509990692 8.9799995422 16.7560005188 8.9280004501 C 22.1480007172 6.2189998627 33.2290000916 0.451000005 33.3709983826 0.3959999979 C 33.6500015259 0.2860000134 33.6679992676 0.0970000029 33.5839996338 -0.1529999971 C 33.297000885 -1.0089999437 32.9749984741 -1.9789999723 32.6949996948 -2.8359999657 C 32.6310005188 -3.0309998989 32.6370010376 -3.253000021 32.4160003662 -3.257999897 C 31.7730007172 -3.2699999809 30.2859992981 -3.3129999638 30.0990009308 -3.3129999638 C 35.7459983826 -8.7770004272 41.2210006714 -14.0699996948 46.8069992065 -19.4769992828 C 46.7789993286 -19.5060005188 46.7529983521 -19.5359992981 46.7270011902 -19.5659999847" style="fill: rgb(44, 46, 53); fill-rule: evenodd; fill-opacity: 1;"/></g></g><g style="clip-path: url(&quot;#clippath45&quot;); transform-origin: 938.721px 946.097px;" transform="matrix(0, 7.424429, 7.424429, 0, -681.615723, -610.871277)"><g transform="translate(941.9287 947.4602)"><path d="M 0 0 C -0.2870000005 -0.8709999919 -0.5619999766 -1.7170000076 -0.8519999981 -2.5569999218 C -0.8730000257 -2.6199998856 -0.9860000014 -2.6900000572 -1.0590000153 -2.6919999123 C -1.8730000257 -2.7130000591 -2.6879999638 -2.7230000496 -3.5020000935 -2.7269999981 C -3.5880000591 -2.7269999981 -3.6930000782 -2.6840000153 -3.756000042 -2.6229999065 C -4.6209998131 -1.7949999571 -5.4800000191 -0.9599999785 -6.3400001526 -0.126000002 C -6.3629999161 -0.1030000001 -6.375 -0.0670000017 -6.4149999619 0" style="fill-rule: evenodd; fill-opacity: 1; fill: rgb(146, 146, 146);"/></g></g><g style="clip-path: url(&quot;#clippath45&quot;); transform-origin: 911.978px 946.115px;" transform="matrix(0, 7.424429, 7.424429, 0, -654.741516, -809.442078)"><g transform="translate(908.7744 947.4622)"><path d="M 0 0 L 6.4099998474 0 C 6.3179998398 -0.1059999987 6.2699999809 -0.1710000038 6.2119998932 -0.2269999981 C 5.4200000763 -0.9950000048 4.6300001144 -1.7669999599 3.8280000687 -2.5250000954 C 3.7300000191 -2.617000103 3.5650000572 -2.6840000153 3.4300000668 -2.6860001087 C 2.6440000534 -2.6989998817 1.8550000191 -2.6960000992 1.067999959 -2.6830000877 C 0.97299999 -2.6819999218 0.8180000186 -2.6040000916 0.7929999828 -2.5269999504 C 0.5170000196 -1.7200000286 0.2619999945 -0.9049999714 0.0020000001 -0.0920000002 C -0.0070000002 -0.0659999996 0 -0.0370000005 0 0" style="fill-rule: evenodd; fill-opacity: 1; fill: rgb(155, 155, 155);"/></g></g></svg>