<?xml version="1.0" encoding="utf-8"?>
<svg xmlns="http://www.w3.org/2000/svg" viewBox="111.5987 25.1575 276.8027 449.6848" width="276.803px" height="449.685px" preserveAspectRatio="none"><defs><clipPath id="clip-4" transform=""><path d="M 0 1055.6090087891 L 1560.6490478516 1055.6090087891 L 1560.6490478516 0 L 0 0" style="fill: none; clip-rule: nonzero;"/></clipPath></defs><g transform="matrix(10.410544395446777, 0, 0, 10.410544395446777, -3343.537353515625, -1734.0332031250002)" style="" id="object-11"><g style="clip-path: url(&quot;#clip-4&quot;);" transform="matrix(1, 0, 0, -1, 86.340317, 886.972595)"><g transform="translate(264.7168 707.782)"><path d="M 0 0 L -5.6199998856 -0.5939999819 L -19.1690006256 9.6149997711 L -13.5489997864 10.2089996338" style="fill: rgb(211, 212, 213); fill-opacity: 1;"/></g></g><g style="clip-path: url(&quot;#clip-4&quot;);" transform="matrix(1, 0, 0, -1, 86.340317, 886.972595)"><g transform="translate(259.0933 715.4348)"><path d="M 0 0 L 7.4219999313 -25.9060001373 L 0.0170000009 -40.638999939 L 0.0140000004 -32.391998291 L -13.5349998474 -22.1830005646 L -13.5450000763 1.9620000124 L 0.003 -8.2469997406" style="fill-opacity: 1;"/></g></g><g style="clip-path: url(&quot;#clip-4&quot;);" transform="matrix(1, 0, 0, -1, 86.340317, 886.972595)"><g transform="translate(264.7305 675.3899)"><path d="M 0 0 L -5.6199998856 -0.5939999819 L 1.7849999666 14.138999939 L 7.4060001373 14.7329998016" style="fill: rgb(163, 164, 167); fill-opacity: 1;"/></g></g><g style="clip-path: url(&quot;#clip-4&quot;);" transform="matrix(1, 0, 0, -1, 86.340317, 886.972595)"><g transform="translate(272.1362 690.1228)"><path d="M 0 0 L -5.6209998131 -0.5939999819 L -13.0430002213 25.3120002747 L -7.4229998589 25.9060001373" style="fill: rgb(207, 208, 209); fill-opacity: 1;"/></g></g></g></svg>