<?xml version="1.0" encoding="utf-8"?>
<svg xmlns="http://www.w3.org/2000/svg" viewBox="170.6891 11.9516 158.6216 476.0966" width="158.622px" height="476.097px" preserveAspectRatio="none"><defs><clipPath id="clip-5" transform=""><path d="M 0 1055.6090087891 L 1560.6490478516 1055.6090087891 L 1560.6490478516 0 L 0 0" style="fill: none; clip-rule: nonzero;"/></clipPath></defs><g transform="matrix(7.757352828979492, 0, 0, 7.757352828979492, -1805.4520263671875, -1086.891357421875)" style="" id="object-12"><g style="clip-path: url(&quot;#clip-5&quot;);" transform="matrix(1, 0, 0, -1, -118.608635, 868.404785)"><g transform="translate(390.8037 665.9734)"><path d="M 0 0 L -5.6199998856 -0.5939999819 L -5.6360001564 36.547000885 L -0.0149999997 37.141998291" style="fill: rgb(180, 181, 184); fill-opacity: 1;"/></g></g><g style="clip-path: url(&quot;#clip-5&quot;);" transform="matrix(1, 0, 0, -1, -118.608635, 868.404785)"><g transform="translate(380.7549 726.1594)"><path d="M 0 0 L 7.4260001183 -25.908000946 L 4.4130001068 -23.638999939 L 4.4289999008 -60.7799987793 L -4.3779997826 -54.1440010071 L -4.3940000534 -17.0020008087 L -7.4019999504 -14.7349996567" style="fill-opacity: 1;"/></g></g><g style="clip-path: url(&quot;#clip-5&quot;);" transform="matrix(1, 0, 0, -1, -118.608635, 868.404785)"><g transform="translate(393.8008 700.845)"><path d="M 0 0 L -5.6199998856 -0.5939999819 L -13.045999527 25.313999176 L -7.4260001183 25.908000946" style="fill: rgb(207, 208, 209); fill-opacity: 1;"/></g></g></g></svg>