<?xml version="1.0" encoding="utf-8"?>
<svg xmlns="http://www.w3.org/2000/svg" viewBox="10.1978 85.8925 479.6043 328.2149" width="479.604px" height="328.215px" preserveAspectRatio="none"><defs><clipPath id="clippath21" transform=""><path d="M 0 1055.6090087891 L 1560.6490478516 1055.6090087891 L 1560.6490478516 0 L 0 0" style="fill: none; clip-rule: nonzero;"/></clipPath></defs><g transform="matrix(7.749323844909669, 0, 0, 7.749323844909669, -2082.610595703125, -1082.7210693359375)" style="" id="object-3"><g style="clip-path: url(&quot;#clippath21&quot;);" transform="matrix(1, 0, 0, -1, -229.131058, 1147.330078)"><g transform="translate(540.4814 986.2761)"><path d="M 0 0 L 0 -22 C -19.0370006561 -22.077999115 -41.2869987488 -20.4340000153 -41.2869987488 -7.626999855 C -41.2869987488 1.0640000105 -41.2620010376 3.9409999847 -41.2869987488 8.1759996414 C -39.3190002441 -0.9670000076 -18.0659999847 -0.0719999969 0 0" style="fill-opacity: 1;"/></g></g><g style="clip-path: url(&quot;#clippath21&quot;);" transform="matrix(1, 0, 0, -1, -229.131058, 1147.330078)"><g transform="translate(539.9072 996.5281)"><path d="M 0 0 L 21.1770000458 -21.1760005951 L 0 -42.3540000916" style="fill-opacity: 1;"/></g></g></g></svg>