<?xml version="1.0" encoding="utf-8"?>
<svg xmlns="http://www.w3.org/2000/svg" viewBox="9.3526 68.9063 481.2949 362.1874" width="481.295px" height="362.187px" preserveAspectRatio="none"><defs><clipPath id="clippath35" transform=""><path d="M 0 1055.6090087891 L 1560.6490478516 1055.6090087891 L 1560.6490478516 0 L 0 0" style="fill: none; clip-rule: nonzero;"/></clipPath></defs><g id="object-9" transform="matrix(8.587207794189453, 0, 0, 8.587207794189453, -1959.1380615234375, -1330.6182861328127)"><g style="clip-path: url(&quot;#clippath35&quot;);" transform="matrix(1, 0, 0, -1, -242.144058, 1053.319214)" id="object-4"><g transform="translate(508.542 848.1638)"><path d="M 0 0 L -2.7349998951 1.4880000353 L -2.7200000286 9.7539997101 L 0.0149999997 8.265999794" style="fill: rgb(158, 159, 162); fill-opacity: 1;"/></g></g><g style="clip-path: url(&quot;#clippath35&quot;);" transform="matrix(1, 0, 0, -1, -242.144058, 1053.319214)" id="object-5"><g transform="translate(508.6025 880.5964)"><path d="M 0 0 L -2.7349998951 1.4880000353 L -2.7200000286 9.7449998856 L 0.0160000008 8.2569999695" style="fill: rgb(158, 159, 162); fill-opacity: 1;"/></g></g><g style="clip-path: url(&quot;#clippath35&quot;);" transform="matrix(1, 0, 0, -1, -242.144058, 1053.319214)" id="object-6"><g transform="translate(508.6182 888.8533)"><path d="M 0 0 L 18.8090000153 -17.6949996948 L -0.0759999976 -40.688999176 L -0.0610000007 -32.4230003357 L -34.5040016174 -37.2649993896 L -34.4580001831 -13.0989999771 L -0.0160000008 -8.2569999695" style="fill-opacity: 1; fill: rgb(6, 0, 0);"/></g></g><g style="clip-path: url(&quot;#clippath35&quot;);" transform="matrix(1, 0, 0, -1, -242.144058, 1053.319214)" id="object-7"><g transform="translate(474.1143 851.5886)"><path d="M 0 0 L -2.7349998951 1.4880000353 L -2.6900000572 25.6539993286 L 0.0450000018 24.1660003662" style="fill: rgb(158, 159, 162); fill-opacity: 1;"/></g></g><g style="clip-path: url(&quot;#clippath35&quot;);" transform="matrix(1, 0, 0, -1, -242.144058, 1053.319214)" id="object-8"><g transform="translate(474.1597 875.7546)"><path d="M 0 0 L -2.7349998951 1.4880000353 L 31.7080001831 6.3299999237 L 34.4430007935 4.8420000076" style="fill: rgb(231, 232, 233); fill-opacity: 1;"/></g></g></g></svg>